<?xml version="1.0" encoding="iso-8859-1"?>
<!-- Generator: Adobe Illustrator 19.0.0, SVG Export Plug-In . SVG Version: 6.00 Build 0)  -->
<svg version="1.1" id="Layer_1" xmlns="http://www.w3.org/2000/svg" xmlns:xlink="http://www.w3.org/1999/xlink" x="0px" y="0px"
	 viewBox="0 0 285.714 285.714" style="enable-background:new 0 0 285.714 285.714;" xml:space="preserve">
<g>
	<g>
		<g>
			<path d="M252.381,71.429v-9.524h14.286V52.38h-14.286h-4.762H38.095h-4.762H19.048v9.524h14.286v9.524H0v9.524h33.333v42.857
				c0,60.39,49.129,109.524,109.524,109.524c60.395,0,109.524-49.134,109.524-109.524V80.952h33.333v-9.523H252.381z
				 M242.857,123.809c0,55.143-44.862,100-100,100s-100-44.857-100-100V61.904h200V123.809z"/>
			<circle cx="57.143" cy="123.809" r="4.762"/>
			<circle cx="76.19" cy="123.809" r="4.762"/>
			<circle cx="95.238" cy="123.809" r="4.762"/>
			<circle cx="114.286" cy="123.809" r="4.762"/>
			<circle cx="133.333" cy="123.809" r="4.762"/>
			<circle cx="152.381" cy="123.809" r="4.762"/>
			<circle cx="171.429" cy="123.809" r="4.762"/>
			<circle cx="190.476" cy="123.809" r="4.762"/>
			<circle cx="209.524" cy="123.809" r="4.762"/>
			<circle cx="228.571" cy="123.809" r="4.762"/>
			<circle cx="66.667" cy="138.094" r="4.762"/>
			<circle cx="85.714" cy="138.094" r="4.762"/>
			<circle cx="104.762" cy="138.094" r="4.762"/>
			<circle cx="123.81" cy="138.094" r="4.762"/>
			<circle cx="142.857" cy="138.094" r="4.762"/>
			<circle cx="161.905" cy="138.094" r="4.762"/>
			<circle cx="180.952" cy="138.094" r="4.762"/>
			<circle cx="200" cy="138.094" r="4.762"/>
			<circle cx="219.048" cy="138.094" r="4.762"/>
			<circle cx="57.143" cy="152.381" r="4.762"/>
			<circle cx="76.19" cy="152.381" r="4.762"/>
			<circle cx="95.238" cy="152.381" r="4.762"/>
			<circle cx="114.286" cy="152.381" r="4.762"/>
			<circle cx="133.333" cy="152.381" r="4.762"/>
			<circle cx="152.381" cy="152.381" r="4.762"/>
			<circle cx="171.429" cy="152.381" r="4.762"/>
			<circle cx="190.476" cy="152.381" r="4.762"/>
			<circle cx="209.524" cy="152.381" r="4.762"/>
			<circle cx="228.571" cy="152.381" r="4.762"/>
			<circle cx="66.667" cy="166.667" r="4.762"/>
			<circle cx="85.714" cy="166.667" r="4.762"/>
			<circle cx="104.762" cy="166.667" r="4.762"/>
			<circle cx="123.81" cy="166.667" r="4.762"/>
			<circle cx="142.857" cy="166.667" r="4.762"/>
			<circle cx="161.905" cy="166.667" r="4.762"/>
			<circle cx="180.952" cy="166.667" r="4.762"/>
			<circle cx="200" cy="166.667" r="4.762"/>
			<circle cx="219.048" cy="166.667" r="4.762"/>
			<circle cx="76.19" cy="180.951" r="4.762"/>
			<circle cx="95.238" cy="180.951" r="4.762"/>
			<circle cx="114.286" cy="180.951" r="4.762"/>
			<circle cx="133.333" cy="180.951" r="4.762"/>
			<circle cx="152.381" cy="180.951" r="4.762"/>
			<circle cx="171.429" cy="180.951" r="4.762"/>
			<circle cx="190.476" cy="180.951" r="4.762"/>
			<circle cx="209.524" cy="180.951" r="4.762"/>
			<circle cx="85.714" cy="195.238" r="4.762"/>
			<circle cx="104.762" cy="195.238" r="4.762"/>
			<circle cx="123.81" cy="195.238" r="4.762"/>
			<circle cx="142.857" cy="195.238" r="4.762"/>
			<circle cx="161.905" cy="195.238" r="4.762"/>
			<circle cx="180.952" cy="195.238" r="4.762"/>
			<circle cx="200" cy="195.238" r="4.762"/>
			<circle cx="114.286" cy="209.524" r="4.762"/>
			<circle cx="133.333" cy="209.524" r="4.762"/>
			<circle cx="152.381" cy="209.524" r="4.762"/>
			<circle cx="171.429" cy="209.524" r="4.762"/>
		</g>
	</g>
</g>
<g>
</g>
<g>
</g>
<g>
</g>
<g>
</g>
<g>
</g>
<g>
</g>
<g>
</g>
<g>
</g>
<g>
</g>
<g>
</g>
<g>
</g>
<g>
</g>
<g>
</g>
<g>
</g>
<g>
</g>
</svg>
